# xmcd CD database file
#
# Track frame offsets:
#	182
#	13265
#	28990
#	45817
#	61560
#	74332
#	90950
#	105910
#	117937
#	133130
#
# Disc length: 1976 seconds
#
# Revision: 0
# Processed by: cddbd v1.5.2PL0 Copyright (c) Steve Scherf et al.
# Submitted via: CDex 1.80
#
DISCID=7607b60a
DTITLE=Scott Dann - Country In My Blood
DYEAR=1900
DGENRE=Country
TTITLE0=The Man From Snowy River
TTITLE1=She's In Love With The Rodeo Man
TTITLE2=Heartbreak Highway
TTITLE3=Goodnight Irene
TTITLE4=I'm Working On My Next Broken Heart
TTITLE5=Rodeo Man
TTITLE6=Take Me Back To Tamworth
TTITLE7=All Fired Up
TTITLE8=Country In My Blood
TTITLE9=Rodeo
EXTD=
EXTT0=
EXTT1=
EXTT2=
EXTT3=
EXTT4=
EXTT5=
EXTT6=
EXTT7=
EXTT8=
EXTT9=
PLAYORDER=
